<svg xmlns="http://www.w3.org/2000/svg" viewBox="0 0 96 96" role="img" aria-label="AutoAnime">
  <defs>
    <linearGradient id="bg" x1="16" y1="10" x2="82" y2="88" gradientUnits="userSpaceOnUse">
      <stop offset="0" stop-color="#7dd3fc"/>
      <stop offset="0.54" stop-color="#8b5cf6"/>
      <stop offset="1" stop-color="#f472b6"/>
    </linearGradient>
    <linearGradient id="face" x1="30" y1="28" x2="68" y2="74" gradientUnits="userSpaceOnUse">
      <stop offset="0" stop-color="#fff7ed"/>
      <stop offset="1" stop-color="#fde2e4"/>
    </linearGradient>
  </defs>
  <rect width="96" height="96" rx="24" fill="url(#bg)"/>
  <path d="M22 42c3-18 18-28 34-23 14 4 23 18 21 34-2 18-15 30-32 28-16-2-26-16-23-39Z" fill="#ffffff" opacity=".92"/>
  <path d="M25 38c2-14 13-23 28-21 11 2 19 10 22 22-12-7-27-6-50-1Z" fill="#1e1b4b"/>
  <path d="M29 38c5-15 19-22 34-15 0 13-8 23-20 27-6 2-11-2-14-12Z" fill="#4338ca"/>
  <path d="M25 46c2-12 12-20 25-20s23 9 25 20c2 14-8 28-25 28S23 60 25 46Z" fill="url(#face)"/>
  <path d="M29 40c3-12 12-20 24-20 10 0 17 6 21 17-15-4-29-2-45 3Z" fill="#312e81"/>
  <path d="M27 45c7-3 15-6 23-12 6 7 14 10 25 12-3-13-13-23-25-23S29 31 27 45Z" fill="#312e81"/>
  <circle cx="39" cy="51" r="4" fill="#1e1b4b"/>
  <circle cx="61" cy="51" r="4" fill="#1e1b4b"/>
  <circle cx="37.5" cy="49.5" r="1.2" fill="#fff"/>
  <circle cx="59.5" cy="49.5" r="1.2" fill="#fff"/>
  <path d="M45 61c3 3 7 3 10 0" fill="none" stroke="#be185d" stroke-width="2.5" stroke-linecap="round"/>
  <path d="M21 36 11 21l18 7M75 36l10-15-18 7" fill="#fff" opacity=".95"/>
  <path d="M34 67c7 5 24 5 31 0 2 7-4 15-15 15s-18-8-16-15Z" fill="#fdf2f8" opacity=".78"/>
  <path d="M18 72c8 10 51 13 62-4" fill="none" stroke="#fff" stroke-width="5" stroke-linecap="round" opacity=".45"/>
</svg>
